<svg width="100" height="100" viewBox="0 0 100 100" fill="none" xmlns="http://www.w3.org/2000/svg">
<g clip-path="url(#clip0_30_285)">
<path d="M50.0002 0C22.3752 0 0 22.3749 0 49.9999C0 77.6249 22.3752 100 50.0002 100C77.6252 100 100 77.6249 100 49.9999C100 22.3708 77.6252 0 50.0002 0Z" fill="#E5EDF4" fill-opacity="0.9"/>
<path d="M86.7748 26.25C87.6331 29.1375 88.1706 32.1333 88.1706 35.2333C88.1706 45.3958 83.1289 54.275 75.5164 59.9417C62.3289 69.675 43.0248 69.675 16.4331 78.0208C20.5256 82.9501 25.6557 86.9154 31.4573 89.6335C37.2588 92.3517 43.5888 93.7559 49.9956 93.7458C74.2289 93.7458 93.7456 74.1708 93.7456 50.1042C93.7456 41.225 91.1706 33.0958 86.7748 26.25Z" fill="#1863A9" fill-opacity="0.9"/>
<path d="M76.2664 15.0167C68.6885 9.32876 59.4707 6.25126 49.9956 6.24585C25.7623 6.24585 6.24561 25.8209 6.24561 49.9958C6.24561 59.7292 9.46227 68.7167 14.8248 75.8833C44.2039 67.325 67.4748 44.325 76.2664 15.0167Z" fill="#ED3238" fill-opacity="0.9"/>
</g>
<defs>
<clipPath id="clip0_30_285">
<rect width="100" height="100" fill="white"/>
</clipPath>
</defs>
</svg>
